<svg xmlns="http://www.w3.org/2000/svg" xmlns:xlink="http://www.w3.org/1999/xlink" width="162" zoomAndPan="magnify" viewBox="0 0 121.5 42" height="56" preserveAspectRatio="xMidYMid meet" version="1.0"><defs><g/><clipPath id="9034ba237a"><path d="M 1.167969 0 L 43 0 L 43 28 L 1.167969 28 Z M 1.167969 0 " clip-rule="nonzero"/></clipPath><clipPath id="9f57b69e73"><path d="M 50 11 L 50.984375 11 L 50.984375 30 L 50 30 Z M 50 11 " clip-rule="nonzero"/></clipPath></defs><g clip-path="url(#9034ba237a)"><path fill="#3c52d9" d="M 41.65625 16.992188 C 42.371094 17.71875 42.371094 18.894531 41.65625 19.617188 L 34.195312 27.207031 C 34.082031 27.324219 33.949219 27.414062 33.800781 27.476562 C 33.652344 27.539062 33.496094 27.570312 33.335938 27.570312 C 33.171875 27.570312 33.015625 27.539062 32.867188 27.476562 C 32.71875 27.414062 32.585938 27.324219 32.472656 27.207031 L 23.769531 18.351562 C 23.425781 18.003906 23.234375 17.53125 23.234375 17.039062 L 23.234375 1.238281 C 23.234375 0.136719 24.542969 -0.414062 25.308594 0.367188 Z M 8.714844 26.742188 C 8.882812 26.914062 9.082031 27.050781 9.304688 27.144531 C 9.527344 27.238281 9.761719 27.285156 10.003906 27.285156 C 10.246094 27.285156 10.480469 27.238281 10.707031 27.144531 C 10.929688 27.050781 11.125 26.914062 11.296875 26.742188 L 19.566406 18.328125 C 19.90625 17.980469 20.101562 17.507812 20.101562 17.015625 L 20.101562 1.253906 C 20.101562 0.152344 18.789062 -0.398438 18.023438 0.378906 L 1.703125 16.984375 C 0.992188 17.707031 0.992188 18.882812 1.703125 19.609375 Z M 8.714844 26.742188 " fill-opacity="1" fill-rule="nonzero"/></g><path fill="#2ef2ff" d="M 13.386719 29.429688 L 20 22.816406 C 20.214844 22.601562 20.460938 22.4375 20.738281 22.324219 C 21.015625 22.207031 21.304688 22.148438 21.605469 22.148438 C 21.90625 22.148438 22.195312 22.207031 22.476562 22.324219 C 22.753906 22.4375 23 22.601562 23.210938 22.816406 L 29.902344 29.507812 C 30.117188 29.71875 30.28125 29.964844 30.394531 30.242188 C 30.511719 30.523438 30.570312 30.8125 30.570312 31.113281 C 30.570312 31.414062 30.511719 31.703125 30.394531 31.980469 C 30.28125 32.257812 30.117188 32.503906 29.902344 32.71875 L 23.289062 39.332031 C 23.078125 39.546875 22.832031 39.707031 22.554688 39.824219 C 22.273438 39.9375 21.984375 39.996094 21.683594 39.996094 C 21.382812 39.996094 21.09375 39.9375 20.816406 39.824219 C 20.539062 39.710938 20.292969 39.546875 20.078125 39.332031 L 13.386719 32.640625 C 13.171875 32.425781 13.007812 32.179688 12.894531 31.902344 C 12.78125 31.625 12.722656 31.335938 12.722656 31.035156 C 12.722656 30.734375 12.78125 30.445312 12.894531 30.164062 C 13.007812 29.886719 13.171875 29.640625 13.386719 29.429688 Z M 13.386719 29.429688 " fill-opacity="1" fill-rule="nonzero"/><g clip-path="url(#9f57b69e73)"><path fill="#eaedff" d="M 62.898438 29.132812 L 59.53125 24.292969 L 56.660156 29.132812 L 51.179688 29.132812 L 56.804688 20.351562 L 50.980469 11.988281 L 56.65625 11.988281 L 59.925781 16.707031 L 62.726562 11.988281 L 68.207031 11.988281 L 62.652344 20.621094 L 68.574219 29.132812 Z M 76.074219 29.300781 C 74.453125 29.300781 72.964844 28.929688 71.601562 28.183594 C 70.242188 27.421875 69.164062 26.375 68.359375 25.046875 C 67.574219 23.699219 67.179688 22.183594 67.179688 20.5 C 67.179688 18.8125 67.574219 17.304688 68.359375 15.976562 C 69.152344 14.628906 70.234375 13.585938 71.601562 12.839844 C 72.964844 12.09375 74.453125 11.71875 76.074219 11.71875 C 77.714844 11.71875 79.203125 12.09375 80.546875 12.839844 C 81.90625 13.585938 82.980469 14.628906 83.765625 15.976562 C 84.550781 17.304688 84.945312 18.8125 84.945312 20.5 C 84.945312 22.183594 84.550781 23.699219 83.765625 25.046875 C 82.980469 26.386719 81.90625 27.429688 80.546875 28.183594 C 79.1875 28.929688 77.695312 29.300781 76.074219 29.300781 Z M 76.074219 24.875 C 77.304688 24.875 78.269531 24.480469 78.972656 23.683594 C 79.695312 22.890625 80.054688 21.828125 80.054688 20.5 C 80.054688 19.136719 79.695312 18.066406 78.972656 17.289062 C 78.269531 16.496094 77.304688 16.097656 76.074219 16.097656 C 74.832031 16.097656 73.855469 16.496094 73.152344 17.289062 C 72.445312 18.066406 72.09375 19.136719 72.09375 20.5 C 72.09375 21.84375 72.445312 22.914062 73.152344 23.710938 C 73.855469 24.488281 74.832031 24.875 76.074219 24.875 Z M 95.144531 29.132812 L 91.707031 22.808594 L 91.1875 22.808594 L 91.1875 29.132812 L 86.375 29.132812 L 86.375 11.988281 L 93.964844 11.988281 C 95.359375 11.988281 96.539062 12.230469 97.503906 12.71875 C 98.46875 13.1875 99.199219 13.84375 99.691406 14.6875 C 100.183594 15.515625 100.429688 16.445312 100.429688 17.484375 C 100.429688 18.648438 100.101562 19.679688 99.445312 20.570312 C 98.804688 21.445312 97.863281 22.070312 96.621094 22.445312 L 100.527344 29.132812 Z M 91.1875 19.550781 L 93.574219 19.550781 C 94.226562 19.550781 94.71875 19.398438 95.046875 19.089844 C 95.375 18.78125 95.539062 18.335938 95.539062 17.75 C 95.539062 17.199219 95.367188 16.769531 95.023438 16.460938 C 94.695312 16.136719 94.210938 15.976562 93.574219 15.976562 L 91.1875 15.976562 Z M 113.820312 26.335938 L 107.679688 26.335938 L 106.746094 29.132812 L 101.683594 29.132812 L 108 11.988281 L 113.550781 11.988281 L 119.84375 29.132812 L 114.757812 29.132812 Z M 112.617188 22.6875 L 110.75 17.144531 L 108.90625 22.6875 Z M 112.617188 22.6875 " fill-opacity="1" fill-rule="nonzero"/></g><g fill="#eaedff" fill-opacity="1"><g transform="translate(50.053925, 13.239371)"><g><path d="M 5.703125 0.125 C 4.253906 0.125 3.0625 -0.21875 2.125 -0.90625 C 1.1875 -1.601562 0.6875 -2.59375 0.625 -3.875 L 4.328125 -3.875 C 4.359375 -3.4375 4.484375 -3.117188 4.703125 -2.921875 C 4.929688 -2.722656 5.222656 -2.625 5.578125 -2.625 C 5.898438 -2.625 6.164062 -2.703125 6.375 -2.859375 C 6.582031 -3.015625 6.6875 -3.238281 6.6875 -3.53125 C 6.6875 -3.894531 6.515625 -4.175781 6.171875 -4.375 C 5.828125 -4.570312 5.269531 -4.796875 4.5 -5.046875 C 3.6875 -5.316406 3.023438 -5.578125 2.515625 -5.828125 C 2.015625 -6.085938 1.578125 -6.460938 1.203125 -6.953125 C 0.835938 -7.441406 0.65625 -8.082031 0.65625 -8.875 C 0.65625 -9.675781 0.851562 -10.363281 1.25 -10.9375 C 1.65625 -11.507812 2.210938 -11.941406 2.921875 -12.234375 C 3.628906 -12.535156 4.429688 -12.6875 5.328125 -12.6875 C 6.785156 -12.6875 7.945312 -12.347656 8.8125 -11.671875 C 9.6875 -10.992188 10.148438 -10.039062 10.203125 -8.8125 L 6.4375 -8.8125 C 6.425781 -9.1875 6.3125 -9.46875 6.09375 -9.65625 C 5.875 -9.84375 5.59375 -9.9375 5.25 -9.9375 C 4.988281 -9.9375 4.773438 -9.859375 4.609375 -9.703125 C 4.441406 -9.554688 4.359375 -9.335938 4.359375 -9.046875 C 4.359375 -8.816406 4.445312 -8.613281 4.625 -8.4375 C 4.8125 -8.269531 5.039062 -8.125 5.3125 -8 C 5.582031 -7.875 5.984375 -7.71875 6.515625 -7.53125 C 7.304688 -7.257812 7.957031 -6.988281 8.46875 -6.71875 C 8.988281 -6.457031 9.429688 -6.085938 9.796875 -5.609375 C 10.171875 -5.128906 10.359375 -4.523438 10.359375 -3.796875 C 10.359375 -3.046875 10.171875 -2.375 9.796875 -1.78125 C 9.429688 -1.195312 8.894531 -0.734375 8.1875 -0.390625 C 7.488281 -0.046875 6.660156 0.125 5.703125 0.125 Z M 5.703125 0.125 "/></g></g></g><g fill="#eaedff" fill-opacity="1"><g transform="translate(60.394728, 13.239371)"><g><path d="M 9.546875 2.09375 L 8.171875 0.015625 C 7.773438 0.0859375 7.378906 0.125 6.984375 0.125 C 5.816406 0.125 4.738281 -0.148438 3.75 -0.703125 C 2.769531 -1.253906 1.992188 -2.015625 1.421875 -2.984375 C 0.847656 -3.960938 0.5625 -5.066406 0.5625 -6.296875 C 0.5625 -7.523438 0.847656 -8.625 1.421875 -9.59375 C 1.992188 -10.570312 2.769531 -11.332031 3.75 -11.875 C 4.738281 -12.414062 5.816406 -12.6875 6.984375 -12.6875 C 8.160156 -12.6875 9.234375 -12.414062 10.203125 -11.875 C 11.179688 -11.332031 11.953125 -10.570312 12.515625 -9.59375 C 13.085938 -8.625 13.375 -7.523438 13.375 -6.296875 C 13.375 -5.265625 13.164062 -4.3125 12.75 -3.4375 C 12.34375 -2.570312 11.78125 -1.851562 11.0625 -1.28125 L 13.703125 2.09375 Z M 4.109375 -6.296875 C 4.109375 -5.304688 4.363281 -4.523438 4.875 -3.953125 C 5.382812 -3.378906 6.085938 -3.09375 6.984375 -3.09375 C 7.867188 -3.09375 8.566406 -3.382812 9.078125 -3.96875 C 9.597656 -4.550781 9.859375 -5.328125 9.859375 -6.296875 C 9.859375 -7.285156 9.597656 -8.066406 9.078125 -8.640625 C 8.566406 -9.210938 7.867188 -9.5 6.984375 -9.5 C 6.085938 -9.5 5.382812 -9.210938 4.875 -8.640625 C 4.363281 -8.066406 4.109375 -7.285156 4.109375 -6.296875 Z M 4.109375 -6.296875 "/></g></g></g><g fill="#eaedff" fill-opacity="1"><g transform="translate(73.710354, 13.239371)"><g><path d="M 4.390625 -12.484375 L 4.390625 -5.25 C 4.390625 -4.570312 4.546875 -4.050781 4.859375 -3.6875 C 5.171875 -3.320312 5.648438 -3.140625 6.296875 -3.140625 C 6.929688 -3.140625 7.410156 -3.320312 7.734375 -3.6875 C 8.054688 -4.0625 8.21875 -4.582031 8.21875 -5.25 L 8.21875 -12.484375 L 11.6875 -12.484375 L 11.6875 -5.25 C 11.6875 -4.101562 11.441406 -3.125 10.953125 -2.3125 C 10.472656 -1.5 9.816406 -0.890625 8.984375 -0.484375 C 8.160156 -0.078125 7.238281 0.125 6.21875 0.125 C 5.207031 0.125 4.300781 -0.078125 3.5 -0.484375 C 2.695312 -0.890625 2.066406 -1.492188 1.609375 -2.296875 C 1.160156 -3.109375 0.9375 -4.09375 0.9375 -5.25 L 0.9375 -12.484375 Z M 4.390625 -12.484375 "/></g></g></g><g fill="#eaedff" fill-opacity="1"><g transform="translate(85.680219, 13.239371)"><g><path d="M 8.890625 -2.03125 L 4.46875 -2.03125 L 3.796875 0 L 0.140625 0 L 4.703125 -12.484375 L 8.703125 -12.484375 L 13.234375 0 L 9.5625 0 Z M 8.03125 -4.703125 L 6.6875 -8.734375 L 5.34375 -4.703125 Z M 8.03125 -4.703125 "/></g></g></g><g fill="#eaedff" fill-opacity="1"><g transform="translate(98.411496, 13.239371)"><g><path d="M 7.3125 0 L 4.84375 -4.609375 L 4.46875 -4.609375 L 4.46875 0 L 1 0 L 1 -12.484375 L 6.46875 -12.484375 C 7.46875 -12.484375 8.316406 -12.3125 9.015625 -11.96875 C 9.710938 -11.625 10.238281 -11.144531 10.59375 -10.53125 C 10.945312 -9.925781 11.125 -9.242188 11.125 -8.484375 C 11.125 -7.640625 10.890625 -6.894531 10.421875 -6.25 C 9.960938 -5.601562 9.28125 -5.144531 8.375 -4.875 L 11.203125 0 Z M 4.46875 -6.984375 L 6.1875 -6.984375 C 6.65625 -6.984375 7.003906 -7.09375 7.234375 -7.3125 C 7.472656 -7.539062 7.59375 -7.867188 7.59375 -8.296875 C 7.59375 -8.691406 7.472656 -9.003906 7.234375 -9.234375 C 6.992188 -9.460938 6.644531 -9.578125 6.1875 -9.578125 L 4.46875 -9.578125 Z M 4.46875 -6.984375 "/></g></g></g><g fill="#eaedff" fill-opacity="1"><g transform="translate(109.478298, 13.239371)"><g><path d="M 4.46875 -9.703125 L 4.46875 -7.671875 L 8.453125 -7.671875 L 8.453125 -5.03125 L 4.46875 -5.03125 L 4.46875 -2.78125 L 8.984375 -2.78125 L 8.984375 0 L 1 0 L 1 -12.484375 L 8.984375 -12.484375 L 8.984375 -9.703125 Z M 4.46875 -9.703125 "/></g></g></g><g fill="#eaedff" fill-opacity="1"><g transform="translate(52.43064, 39.466496)"><g><path d="M 1.03125 -4.9375 C 3.070312 -6.53125 4.742188 -7.90625 6.046875 -9.0625 C 7.347656 -10.21875 8.4375 -11.410156 9.3125 -12.640625 C 10.195312 -13.867188 10.640625 -15.039062 10.640625 -16.15625 C 10.640625 -16.820312 10.488281 -17.34375 10.1875 -17.71875 C 9.882812 -18.101562 9.4375 -18.296875 8.84375 -18.296875 C 8.238281 -18.296875 7.765625 -18.035156 7.421875 -17.515625 C 7.085938 -17.003906 6.929688 -16.253906 6.953125 -15.265625 L 0.96875 -15.265625 C 1.039062 -17.140625 1.453125 -18.6875 2.203125 -19.90625 C 2.960938 -21.132812 3.945312 -22.035156 5.15625 -22.609375 C 6.375 -23.191406 7.726562 -23.484375 9.21875 -23.484375 C 11.800781 -23.484375 13.722656 -22.84375 14.984375 -21.5625 C 16.242188 -20.28125 16.875 -18.625 16.875 -16.59375 C 16.875 -14.40625 16.144531 -12.359375 14.6875 -10.453125 C 13.226562 -8.546875 11.40625 -6.835938 9.21875 -5.328125 L 17.09375 -5.328125 L 17.09375 -0.3125 L 1.03125 -0.3125 Z M 1.03125 -4.9375 "/></g></g></g><g fill="#eaedff" fill-opacity="1"><g transform="translate(73.678475, 39.466496)"><g><path d="M 1.234375 -11.84375 C 1.234375 -15.445312 1.96875 -18.285156 3.4375 -20.359375 C 4.90625 -22.441406 7.210938 -23.484375 10.359375 -23.484375 C 13.503906 -23.484375 15.816406 -22.441406 17.296875 -20.359375 C 18.773438 -18.285156 19.515625 -15.445312 19.515625 -11.84375 C 19.515625 -8.1875 18.78125 -5.316406 17.3125 -3.234375 C 15.84375 -1.160156 13.523438 -0.125 10.359375 -0.125 C 7.191406 -0.125 4.878906 -1.160156 3.421875 -3.234375 C 1.960938 -5.316406 1.234375 -8.1875 1.234375 -11.84375 Z M 13.40625 -11.84375 C 13.40625 -13.726562 13.207031 -15.164062 12.8125 -16.15625 C 12.414062 -17.15625 11.597656 -17.65625 10.359375 -17.65625 C 9.117188 -17.65625 8.296875 -17.15625 7.890625 -16.15625 C 7.492188 -15.164062 7.296875 -13.726562 7.296875 -11.84375 C 7.296875 -9.90625 7.488281 -8.4375 7.875 -7.4375 C 8.269531 -6.445312 9.097656 -5.953125 10.359375 -5.953125 C 11.617188 -5.953125 12.441406 -6.445312 12.828125 -7.4375 C 13.210938 -8.4375 13.40625 -9.90625 13.40625 -11.84375 Z M 13.40625 -11.84375 "/></g></g></g><g fill="#eaedff" fill-opacity="1"><g transform="translate(97.696295, 39.466496)"><g><path d="M 17.984375 -17.5625 L 8.53125 -17.5625 L 8.53125 -14.078125 C 8.925781 -14.492188 9.46875 -14.828125 10.15625 -15.078125 C 10.851562 -15.328125 11.625 -15.453125 12.46875 -15.453125 C 13.976562 -15.453125 15.238281 -15.101562 16.25 -14.40625 C 17.269531 -13.71875 18.019531 -12.804688 18.5 -11.671875 C 18.988281 -10.546875 19.234375 -9.3125 19.234375 -7.96875 C 19.234375 -5.488281 18.53125 -3.539062 17.125 -2.125 C 15.71875 -0.707031 13.765625 0 11.265625 0 C 9.523438 0 8.019531 -0.296875 6.75 -0.890625 C 5.476562 -1.492188 4.503906 -2.328125 3.828125 -3.390625 C 3.160156 -4.460938 2.816406 -5.691406 2.796875 -7.078125 L 8.8125 -7.078125 C 8.875 -6.597656 9.082031 -6.179688 9.4375 -5.828125 C 9.800781 -5.472656 10.328125 -5.296875 11.015625 -5.296875 C 11.753906 -5.296875 12.3125 -5.546875 12.6875 -6.046875 C 13.0625 -6.546875 13.25 -7.21875 13.25 -8.0625 C 13.25 -8.875 13.050781 -9.492188 12.65625 -9.921875 C 12.257812 -10.359375 11.679688 -10.578125 10.921875 -10.578125 C 10.359375 -10.578125 9.898438 -10.4375 9.546875 -10.15625 C 9.203125 -9.875 9 -9.519531 8.9375 -9.09375 L 2.921875 -9.09375 L 2.921875 -23.015625 L 17.984375 -23.015625 Z M 17.984375 -17.5625 "/></g></g></g></svg>